REM DIRINDEX 1\2\3,1\2\4,1\2\5,1\2\6
REM DIRNAME folder01,folder02,folder03,folder04,folder05,folder06
TITLE ""
FILE "065 065.mp3" MP3
  TRACK 01 AUDIO
    TITLE "0:"
    INDEX 01 00:00:00
  TRACK 02 AUDIO
    TITLE "3:cjc157_2412"
    INDEX 01 00:00:11
  TRACK 03 AUDIO
    TITLE "0:"
    INDEX 01 00:01:36
  TRACK 04 AUDIO
    TITLE "4:cjc157_2413"
    INDEX 01 00:02:10
  TRACK 05 AUDIO
    TITLE "0:"
    INDEX 01 00:03:17
  TRACK 06 AUDIO
    TITLE "5:cjc157_2414"
    INDEX 01 00:03:64
  TRACK 07 AUDIO
    TITLE "0:"
    INDEX 01 00:05:67
  TRACK 08 AUDIO
    TITLE "3:cjc157_2415"
    INDEX 01 00:06:31
  TRACK 09 AUDIO
    TITLE "0:"
    INDEX 01 00:07:52
  TRACK 10 AUDIO
    TITLE "4:cjc157_2416"
    INDEX 01 00:08:24
  TRACK 11 AUDIO
    TITLE "0:"
    INDEX 01 00:09:36
  TRACK 12 AUDIO
    TITLE "5:cjc157_2417"
    INDEX 01 00:10:04
  TRACK 13 AUDIO
    TITLE "0:"
    INDEX 01 00:12:11
  TRACK 14 AUDIO
    TITLE "5:cjc157_2418"
    INDEX 01 00:12:50
  TRACK 15 AUDIO
    TITLE "0:"
    INDEX 01 00:14:53
  TRACK 16 AUDIO
    TITLE "3:cjc157_2419"
    INDEX 01 00:15:21
  TRACK 17 AUDIO
    TITLE "0:"
    INDEX 01 00:16:42
  TRACK 18 AUDIO
    TITLE "4:cjc157_2420"
    INDEX 01 00:17:14
  TRACK 19 AUDIO
    TITLE "0:"
    INDEX 01 00:18:25
  TRACK 20 AUDIO
    TITLE "5:cjc157_2421"
    INDEX 01 00:18:66
  TRACK 21 AUDIO
    TITLE "0:"
    INDEX 01 00:20:43
  TRACK 22 AUDIO
    TITLE "5:cjc157_2422"
    INDEX 01 00:21:15
  TRACK 23 AUDIO
    TITLE "0:"
    INDEX 01 00:23:04
  TRACK 24 AUDIO
    TITLE "5:cjc157_2423"
    INDEX 01 00:23:51
  TRACK 25 AUDIO
    TITLE "0:"
    INDEX 01 00:26:15
  TRACK 26 AUDIO
    TITLE "5:cjc157_2424"
    INDEX 01 00:26:60
  TRACK 27 AUDIO
    TITLE "0:"
    INDEX 01 00:28:62
  TRACK 28 AUDIO
    TITLE "3:cjc157_2425"
    INDEX 01 00:29:33
  TRACK 29 AUDIO
    TITLE "0:"
    INDEX 01 00:30:57
  TRACK 30 AUDIO
    TITLE "4:cjc157_2426"
    INDEX 01 00:31:27
  TRACK 31 AUDIO
    TITLE "0:"
    INDEX 01 00:32:52
  TRACK 32 AUDIO
    TITLE "5:cjc157_2427"
    INDEX 01 00:33:17
  TRACK 33 AUDIO
    TITLE "0:"
    INDEX 01 00:35:43
  TRACK 34 AUDIO
    TITLE "3:cjc157_2428"
    INDEX 01 00:36:13
  TRACK 35 AUDIO
    TITLE "0:"
    INDEX 01 00:37:32
  TRACK 36 AUDIO
    TITLE "4:cjc157_2429"
    INDEX 01 00:38:04
  TRACK 37 AUDIO
    TITLE "0:"
    INDEX 01 00:39:15
  TRACK 38 AUDIO
    TITLE "5:cjc157_2430"
    INDEX 01 00:39:60
  TRACK 39 AUDIO
    TITLE "0:"
    INDEX 01 00:41:59
  TRACK 40 AUDIO
    TITLE "5:cjc157_2431"
    INDEX 01 00:42:31
  TRACK 41 AUDIO
    TITLE "0:"
    INDEX 01 00:44:34
  TRACK 42 AUDIO
    TITLE "5:cjc157_2432"
    INDEX 01 00:45:06
  TRACK 43 AUDIO
    TITLE "0:"
    INDEX 01 00:46:74
  TRACK 44 AUDIO
    TITLE "5:cjc157_2433"
    INDEX 01 00:47:46
  TRACK 45 AUDIO
    TITLE "0:"
    INDEX 01 00:50:03
  TRACK 46 AUDIO
    TITLE "3:cjc157_2434"
    INDEX 01 00:50:50
  TRACK 47 AUDIO
    TITLE "0:"
    INDEX 01 00:51:52
  TRACK 48 AUDIO
    TITLE "4:cjc157_2435"
    INDEX 01 00:52:22
  TRACK 49 AUDIO
    TITLE "0:"
    INDEX 01 00:53:66
  TRACK 50 AUDIO
    TITLE "5:cjc157_2436"
    INDEX 01 00:54:34
  TRACK 51 AUDIO
    TITLE "0:"
    INDEX 01 00:56:72
  TRACK 52 AUDIO
    TITLE "3:cjc157_2437"
    INDEX 01 00:57:41
  TRACK 53 AUDIO
    TITLE "0:"
    INDEX 01 00:58:66
  TRACK 54 AUDIO
    TITLE "4:cjc157_2438"
    INDEX 01 00:59:36
  TRACK 55 AUDIO
    TITLE "0:"
    INDEX 01 01:00:45
  TRACK 56 AUDIO
    TITLE "5:cjc157_2439"
    INDEX 01 01:01:17
  TRACK 57 AUDIO
    TITLE "0:"
    INDEX 01 01:04:09
  TRACK 58 AUDIO
    TITLE "5:cjc157_2440"
    INDEX 01 01:04:56
  TRACK 59 AUDIO
    TITLE "0:"
    INDEX 01 01:07:41
  TRACK 60 AUDIO
    TITLE "3:cjc157_2441"
    INDEX 01 01:08:11
  TRACK 61 AUDIO
    TITLE "0:"
    INDEX 01 01:09:24
  TRACK 62 AUDIO
    TITLE "4:cjc157_2442"
    INDEX 01 01:09:71
  TRACK 63 AUDIO
    TITLE "0:"
    INDEX 01 01:11:07
  TRACK 64 AUDIO
    TITLE "5:cjc157_2443"
    INDEX 01 01:11:52
  TRACK 65 AUDIO
    TITLE "0:"
    INDEX 01 01:13:26
  TRACK 66 AUDIO
    TITLE "5:cjc157_2444"
    INDEX 01 01:13:73
  TRACK 67 AUDIO
    TITLE "0:"
    INDEX 01 01:17:22
  TRACK 68 AUDIO
    TITLE "3:cjc157_2445"
    INDEX 01 01:17:71
  TRACK 69 AUDIO
    TITLE "0:"
    INDEX 01 01:19:19
  TRACK 70 AUDIO
    TITLE "4:cjc157_2446"
    INDEX 01 01:19:66
  TRACK 71 AUDIO
    TITLE "0:"
    INDEX 01 01:21:04
  TRACK 72 AUDIO
    TITLE "5:cjc157_2447"
    INDEX 01 01:21:47
  TRACK 73 AUDIO
    TITLE "0:"
    INDEX 01 01:23:26
  TRACK 74 AUDIO
    TITLE "5:cjc157_2448"
    INDEX 01 01:24:02
  TRACK 75 AUDIO
    TITLE "0:"
    INDEX 01 01:25:57
  TRACK 76 AUDIO
    TITLE "3:cjc157_2449"
    INDEX 01 01:26:29
  TRACK 77 AUDIO
    TITLE "0:"
    INDEX 01 01:27:46
  TRACK 78 AUDIO
    TITLE "4:cjc157_2450"
    INDEX 01 01:28:20
  TRACK 79 AUDIO
    TITLE "0:"
    INDEX 01 01:29:29
  TRACK 80 AUDIO
    TITLE "5:cjc157_2451"
    INDEX 01 01:29:72
  TRACK 81 AUDIO
    TITLE "0:"
    INDEX 01 01:31:55
